/* XPM */
static char *b3d2e2cb44a1495fd656c9133f9fc2b93DdgOqnFQKyTBBn9[] = {
/* columns rows colors chars-per-pixel */
"30 30 156 2 ",
"   c None",
".  c #351618",
"X  c #3F151B",
"o  c #392729",
"O  c #521B28",
"+  c #4A2022",
"@  c #4E272B",
"#  c #5B252D",
"$  c #57282A",
"%  c #4A3C3E",
"&  c #662535",
"*  c #652D34",
"=  c #6E2A3B",
"-  c #72293C",
";  c #673137",
":  c #683438",
">  c #6C383D",
",  c #71393E",
"<  c #6F2F40",
"1  c #752E42",
"2  c #792D42",
"3  c #743544",
"4  c #7B3346",
"5  c #783E44",
"6  c #733A4B",
"7  c #7D4858",
"8  c #803E46",
"9  c #813549",
"0  c #873A4E",
"q  c #8F3F55",
"w  c #82454C",
"e  c #89474D",
"r  c #864554",
"t  c #8B4257",
"y  c #8A4B52",
"u  c #844659",
"i  c #8D4358",
"p  c #87485C",
"a  c #93465B",
"s  c #94495F",
"d  c #9A495F",
"f  c #9F575F",
"g  c #964A60",
"h  c #9C4D63",
"j  c #935367",
"k  c #9A5763",
"l  c #97586C",
"z  c #9D5B70",
"x  c #A25067",
"c  c #A15A65",
"v  c #A4546B",
"b  c #A8576E",
"n  c #A6586F",
"m  c #AB5E68",
"M  c #AB5A72",
"N  c #B05F75",
"B  c #9B6274",
"V  c #92727E",
"C  c #B06169",
"Z  c #A56277",
"A  c #A5687B",
"S  c #B16374",
"D  c #B26877",
"F  c #B86977",
"G  c #B6637B",
"H  c #BA657E",
"J  c #B7697C",
"K  c #B9697F",
"L  c #997482",
"P  c #BD6982",
"I  c #A77082",
"U  c #BE7082",
"Y  c #C26E86",
"T  c #C27487",
"R  c #C4728A",
"E  c #C9748D",
"W  c #C6788E",
"Q  c #C9798E",
"!  c #CA7790",
"~  c #C37D92",
"^  c #CD7B93",
"/  c #D27D96",
"(  c #D47E98",
")  c #AA808F",
"_  c #B18796",
"`  c #BF8093",
"'  c #BC8799",
"]  c #B08E9C",
"[  c #BF8B9D",
"{  c #B696A3",
"}  c #C08C9E",
"|  c #D38097",
" . c #D5839C",
".. c #DA869F",
"X. c #D5899F",
"o. c #CA8FA2",
"O. c #DC87A0",
"+. c #D38FA4",
"@. c #DB8CA3",
"#. c #C997A8",
"$. c #DB90A6",
"%. c #D594A8",
"&. c #DC92A8",
"*. c #D49CAE",
"=. c #DE9CB1",
"-. c #E18DA6",
";. c #E694AC",
":. c #E09AAF",
">. c #EC97B1",
",. c #E69BB2",
"<. c #EC9BB4",
"1. c #DDA2B4",
"2. c #DBABBC",
"3. c #E5A1B6",
"4. c #ECA2B7",
"5. c #E6A5B9",
"6. c #EBA5BB",
"7. c #E6A9BC",
"8. c #EEA9BE",
"9. c #F1A3BB",
"0. c #F0ABBF",
"q. c #E5ADC1",
"w. c #ECADC2",
"e. c #F1ACC2",
"r. c #E6B6C7",
"t. c #ECB4C6",
"y. c #ECB7C9",
"u. c #EFBACB",
"i. c #F2B2C6",
"p. c #F2B5C9",
"a. c #F2BBCD",
"s. c #F5BED1",
"d. c #EBC2D1",
"f. c #F5C7D7",
"g. c #F5C5D6",
"h. c #F2C2D3",
"j. c #F5C7D9",
"k. c #F3CAD9",
"l. c #F6CADA",
"z. c #F6C8D8",
"x. c #F7CCDB",
"c. c #F6CDDD",
"v. c #F3CEDD",
"b. c #F7D0DE",
"n. c #F6D3E0",
"m. c #F7D5E2",
"M. c #F8D2E1",
"N. c #F7D8E5",
"B. c #F6DCE7",
"V. c #F8D9E6",
"C. c #F8DCE7",
"Z. c #F9DDE8",
"A. c #F9E0EA",
"S. c #FAE0EA",
"D. c #FBE7F0",
"F. c #FBEAF3",
/* pixels */
"                                                            ",
"                                                            ",
"                                                            ",
"                                                            ",
"                                                            ",
"                    ' [ 2.r.y.h.q.q.2.#.)                   ",
"              _ *.5.y.7.t.f.t.1.r.n.d.w.h.2.                ",
"          V o.5.y.w.5.h.A.D.d.d.F.n.h.B.A.m.k.{             ",
"        L 1.%.f.m.v.2.C.N.A.z.A.Z.z.V.c.m.z.V.d.L           ",
"        +.w.h.t.y.h.k.f.c.b.f.n.f.x.M.w.3.6.f.c.r.]         ",
"      ` ,.0.a.6.f.a.z.p.z.h.h.j.a.z.g.a.b.b.a.f.j.y.        ",
"      X.6.4.e.<.s.p.a.8.s.p.u.a.t.h.s.h.h.a.a.a.h.6.}       ",
"    A @.$.@.<.,.p.i.w.,.p.6.5.:.i.p.i.i.4.6.6.6.,.,.=.      ",
"    B @.@.@.-.@.e.e.3. .e.e.9. .$.&.@.W ,.9.e.i.4.;.6.I     ",
"    j ^ @.@...R ,.,.;.K  .@.| S T @.@.X.9.<.-.9.9.-.;.~     ",
"    p v J T Q G K P N a a K &.w.e.9.<.9.9.;.P ;.>.O...~     ",
"    u t h h v v 9 P ,.6.&.6.e.9.<.^ ^  ./ R R E ..( / Z     ",
"      s a a q - T >.>.>.9.<...^ E E  .Y d @.<.^  ./ Y z     ",
"      6 a 4 1 i R ^ T P T H ^  .^ /  . .P / (  .E E H l     ",
"          3 1 h J S R ! ! E R M P G H T P Y P R H P n       ",
"              r b J P n M v v M s - 4 g v M h J G x 7       ",
"                0 h v v n h i < # ; w r 3 = - i a 6         ",
"                  = 2 1 & O X + : k T Q U c 8 *             ",
"                        % o . $ 5 D R T U F m y             ",
"                              @ , c F D S C f               ",
"                                  > w y e w                 ",
"                                                            ",
"                                                            ",
"                                                            ",
"                                                            "
};
