/* XPM */
static char *_869d8b43d524c8582357d64f10fa27ejDSm3fQOjJ3uJJRz[] = {
/* columns rows colors chars-per-pixel */
"58 58 192 2 ",
"   c None",
".  c #040504",
"X  c #0A0704",
"o  c #0E0A05",
"O  c #0C0D0D",
"+  c #150D06",
"@  c #190F06",
"#  c #110E0B",
"$  c #1C1106",
"%  c #12100D",
"&  c #1C130A",
"*  c #0E0F10",
"=  c #141413",
"-  c #191716",
";  c #1A1817",
":  c #1D1C1B",
">  c #22160A",
",  c #261A0D",
"<  c #2C1C0D",
"1  c #201307",
"2  c #311E0D",
"3  c #251C13",
"4  c #2B1E11",
"5  c #211E1D",
"6  c #2F200F",
"7  c #35210E",
"8  c #3B240F",
"9  c #3F2200",
"0  c #2C2011",
"q  c #23211F",
"w  c #2C241D",
"e  c #352311",
"r  c #3B2611",
"t  c #3D2914",
"y  c #35291D",
"u  c #3B2C1B",
"i  c #30241B",
"p  c #242322",
"a  c #2A2521",
"s  c #2C2B2A",
"d  c #3B2D22",
"f  c #322920",
"g  c #34302D",
"h  c #3D342D",
"j  c #353433",
"k  c #3B3734",
"l  c #393836",
"z  c #3E3D3B",
"x  c #452600",
"c  c #4A2600",
"v  c #4B2900",
"b  c #462D0D",
"n  c #442809",
"m  c #522E00",
"M  c #513002",
"N  c #593500",
"B  c #50310B",
"V  c #412711",
"C  c #442B13",
"Z  c #4A2E14",
"A  c #422E19",
"S  c #4D3115",
"D  c #46321B",
"F  c #4B341B",
"G  c #4B341B",
"H  c #533416",
"J  c #593717",
"K  c #53361A",
"L  c #593718",
"P  c #54391C",
"I  c #5B3B1B",
"U  c #623D00",
"Y  c #623E1C",
"T  c #433325",
"R  c #4B3724",
"E  c #4D3925",
"W  c #43362C",
"Q  c #4C3C2E",
"!  c #543D26",
"~  c #5A3F21",
"^  c #543F2A",
"/  c #463C34",
"(  c #4B3E33",
")  c #413E3C",
"_  c #5D401F",
"`  c #65411D",
"'  c #6C441E",
"]  c #70471F",
"[  c #72481F",
"{  c #5D4121",
"}  c #42403E",
"|  c #4C443D",
" . c #554333",
".. c #544538",
"X. c #5A4B3F",
"o. c #564A3E",
"O. c #634522",
"+. c #6D4621",
"@. c #664824",
"#. c #6B4A25",
"$. c #6C4D29",
"%. c #704720",
"&. c #754A21",
"*. c #764C23",
"=. c #744A22",
"-. c #7A4E22",
";. c #7A4E22",
":. c #724F28",
">. c #6D552E",
",. c #775027",
"<. c #7C5124",
"1. c #74522A",
"2. c #7E552A",
"3. c #7C552A",
"4. c #7D592D",
"5. c #7E5E32",
"6. c #444342",
"7. c #484747",
"8. c #4A4947",
"9. c #4C4B4A",
"0. c #534F4C",
"q. c #54514E",
"w. c #5C544E",
"e. c #5E5045",
"r. c #545352",
"t. c #595857",
"y. c #5D5C5B",
"u. c #635344",
"i. c #625449",
"p. c #6C5741",
"a. c #715D4C",
"s. c #605851",
"d. c #605E5C",
"f. c #695C52",
"g. c #62605E",
"h. c #6D625A",
"j. c #656463",
"k. c #686767",
"l. c #6B6966",
"z. c #6B6B6A",
"x. c #756A61",
"c. c #786E66",
"v. c #71706E",
"b. c #7D736C",
"n. c #757574",
"m. c #797877",
"M. c #7C7C7A",
"N. c #787776",
"B. c #835526",
"V. c #815629",
"C. c #835A2D",
"Z. c #8C5D2C",
"A. c #855D31",
"S. c #885E31",
"D. c #8C602F",
"F. c #95612D",
"G. c #876133",
"H. c #8B6233",
"J. c #8D6C3B",
"K. c #946633",
"L. c #966934",
"P. c #9B6C36",
"I. c #936A39",
"U. c #9C6F39",
"Y. c #9F713A",
"T. c #93713E",
"R. c #9E7842",
"E. c #A27D45",
"W. c #857C75",
"Q. c #807F7E",
"!. c #A68047",
"~. c #A68148",
"^. c #AA8248",
"/. c #AA8147",
"(. c #82817F",
"). c #8A817B",
"_. c #93867C",
"`. c #8C8B8B",
"'. c #818180",
"]. c #908F8E",
"[. c #979796",
"{. c #989897",
"}. c #9D9C9C",
"|. c #A5A5A4",
" X c #A8A7A6",
".X c #ADACAC",
"XX c #B2B1B1",
"oX c #B8B7B7",
"OX c #B8B8B7",
"+X c #BBBBBA",
"@X c #CBCBCA",
"#X c #D5D4D4",
/* pixels */
"                                                                                                                    ",
"                                                & & & $ X < & > > >                                                 ",
"                                        & & > @ & $ & & o u , , > > , , < ,                                         ",
"                                    @ $ & & , > < & j , + ! a a 7 7 7 , e < , <                                     ",
"                                $ $ & > < , e < e l z.w & >.g.y.t Z Z r D r 7 r < 2                                 ",
"                            & , & > , < e e D r Z r y t > J.D D I I I D O.H S P C t e t                             ",
"                        @ & & < < < 7 r Z D I S K D I K , E.' ' ` ' +.P ,.` Y ` K I r D e <                         ",
"                      & & > , e e r Z S I P +.K Y K ` L , !.-.&.' ' %.I V.%.' ,.Y ` D I Z r 2                       ",
"                    @ > , < 0 A Z Z H I ` O.,.I ` L ' L , ^.<.*.%.' ' { C.&.' 2.&.*.P #.I Z t 7                     ",
"                  $ & < < e t P K I I ' ' #.,.I Y K E G < ^.{ ~ %.' ' I H.&.%.C.%.&.I :.' I S S C                   ",
"                & & > e t Z F #.Y ` Y ' &.#.2.I Y g.OXQ 4 E.`.`.Y ] ` { G.%.&.A.-.-.I 2.' ` I I I D                 ",
"              + 4 > < A S K { 2.' ' ' ' %.@.2.I Y d q.A < !./ / ` ' I I H.%.%.C.;.*.O.V.%.' ` Y @.P P               ",
"            + & < < r K L ' #.C.' ' ' ' &.#.C.I I P F F < ^.-.%.' ' I { H.&.&.V.&.B.O.V.%.' ' ' %.F #.              ",
"            @ & e r Z I Y &.#.L.%.' ' %.%.#.C.I I I F F , ^.<.%.' Y I { K.&.&.2.&.B.O.V.%.' %.' &.K #.S             ",
"          @ $ , A C K O.' -.1.P.%.' ' ' %.#.G.F Y I I F < ^.<.' %.` I O.P.%.&.2.%.B.@.C.] ' %.' &.K #.D S           ",
"          $ & < F H I +.%.;.2.U.%.' ' ' %.#.H.F Y I H F , ^.&.` %.` ` O.P.&.&.3.&.B.#.D.%.' ' ' *.P :.F I           ",
"        & & , e I I ` [ %.;.4.I.%.' +.Y %.#.K.F ` / `.D < ~.d.y.' ` +.O.P.%.%.-.&.B.@.S.%.' ' Y &.P ,.F ` S         ",
"        & > < t @.' ' &.%.;.4.I.-.' ' I %.1.K.F ` 0.`.T , E.v.z.` ' +.O.Y.;.] -.%.B.#.S.-.' ' I &.P 2.F ` I         ",
"      @ > , e A 3.%.' ;.&.;.4.I.;.' %.I +.1.L.F ` I S L 0 ^.I I &.` %.O.Y.<.' ;.&.B.#.A.-.' ' I *.I ,.F ' Y K       ",
"      @ > < C F C.-.%.-.%.<.4.I.-.' ' I ' 1.Z.F ` Y I Y 0 ^.&.` %.' *.{ Y.<.' -.%.B.@.A.-.' ' L =.~ ,.F ' Y I       ",
"    @ $ , 7 Z P H.2.' -.&.<.4.I.%.' ' Y +.1.4.F ' I I Y , ~.-.Y ' ' &.{ P.V.' -.*.B.@.S.] %.' I *.~ 1.F ' Y L Z     ",
"    @ & < r S P L.Z.%.-.<.V.4.U.%.' ' Y ' #.4.F ' Y Y I , !.<.I ] ] &.I L.Z.' *.<.C.@.H.%.' ' I ;.I 1.F ' Y I L     ",
"    & 5 , C K { P.F.*.-.;.C.4.P.%.' ' Y ' O.C.F ' K s.K , ^. ...' ] &.{ C.F.%.-.;.S.@.D.' %.' Y *.~ ,.P ' ! i.I     ",
"    & 6.j S K O.P.F.*.;.C.C.2.L.-.%.' ` +.O.4.F ' l.oX/ , E.{.`.Y -.%.{ C.F.%.-.V.S.O.D.-.%.' Y ;.I 1.K ' (.|.O.    ",
"  & > ; 4 K I @.L.<.,.2.C.B.1.H.+.%.' ' %.O.4.F ' F / F > ~.R R ' -.%.{ C.V.*.,.C.V.{ C.' %.' ` *.~ 1.K ' R ( #.    ",
"  3 , < C I ' @.G.<.C.2.-.B.#.D.%.' ` ' &.O.4.F Y I ` F > ^.-.' *.-.<.I C.B.V.,.;.B.I C.' %.' ' ;.I 1.K Y I I $.#.  ",
"  & & 3 y W ..u.a.x.b.W.).).)._.).).).).).)._.b.h.i.X.o.f p.X.e.f.c.W.)._.).).).).).)._.).).W.b.x.i.u.X... .Q ^ !   ",
"  . O = : p s j z q.y.l.l.k.z.z.z.z.z.z.z.z.l.g.r.9.6.} ; ) } 7.q.y.k.z.z.z.z.z.z.z.z.z.z.z.z.y.r.z j j s j p : ;   ",
"  . . j n.: : : : : z..Xp : : : : ; |.z.; : : : : |.k.; O s : M.}.= : : : ; (.[.# : : : : s .Xt.: : : : j XXr.- =   ",
"  . . O j . O O O * : 7.. O O * O . z p O O O O . 6.: O . : O p ) . O % O O a z . O % O * . 8.- * % O O . 9.= O O   ",
"  + > < t A F F O.K K P P K F { F F K K P D ~ D D D G D & $.K K K F P t { P K P P P t { F F K K P t P D D D D K A   ",
"  & e r K I ' $.H.%.%.;.*.*.:.C.I ` ' %.%.@.2.Y I I Y L , ^.%.%.%.' %.{ Z.%.%.&.,.*._ V.I ` ' %.*.P *.Y I I I #.@.  ",
"  & e C H Y ' $.D.&.&.-.%.*.:.H.I ' ' %.&.#.,.Y K I I I , ^.<.*.+.' %.{ K.&.-.&.*.;.O.4.I ' ' %.-.P :.Y P I I #.@.  ",
"  & e h A Y ` #.P.%.-.2.&.&.4.L.I ' ' %.%.1.2.I F K w.K , ^. ...' ' +.{ K.%.<.;.-.;.O.D.I ' ` %.,.{ *.I F ! u.#.@.  ",
"  & 4 k.q.` ` $.P.<.3.3.;.*.4.H.I Y ' %.%.#.C.L F l.XX/ , E.{.`.Y %.+.O.K.-.C.*.<.,.O.A.I Y ' %.*.{ :.L F (.|.$.#.  ",
"  & e w t Y ' $.P.&.2.2.%.*.4.H.I Y ' ] %.#.C.F F K / F , ^.R R +.%.+.O.K.&.C.,.*.;.O.A.L ` ' ] *.P #.F F R ( #.@.  ",
"  & e C H Y Y $.P.[ ,.-.%.*.3.A.Y ` ' ' %.#.C.G F ' I I , /.C.<.] %.@.O.K.] 4.&.*.*.{ C.I ' ' ] &.I #.D K ` I #.O.  ",
"  & 7 C S Y I #.L.%.,.[ %.&.3.4.' ' ' ' ' @.4.D K ' I L , !.C.,.' ' ` { D.%.3.&.*.&.I 4.' ' ' ' %.P +.D L ' I #.O.  ",
"  & < C S I I O.K.' &.] -.;.1.3.' ` ' ` ' I *.D I ' K K 4 E.3.&.' ' Y P V.' &.&.,.-.I 4.' ' ' ` +.K +.D I ` I #.O.  ",
"  & < 7 Z K I O.H.' ] *.] &.1.V.' Y ` Y ' I :.S K I S K , R.O.` ' Y I P 3.' [ *.] -.P V.` Y ' Y +.F O.K K I L @.O.  ",
"  & , 7.g H K O.2.' ' %.' ] #.3.Y L Y ` ' I +.H K | `.T , T.j.d.I I I K ,.' ' *.' &.P ,.Y I Y Y ' D ` K F w.M.@.I   ",
"  & , s w Z S I ,.Y Y +.Y ' O.,.Y I I Y Y K @.S S d 0.t , J.) z K H K F :.Y Y =.Y ' P %.I I I I ` Z ` S S h 8.~ P   ",
"  & < 2 C S Z I *.Y Y Y Y ` O.:.I L L I I K O.Z S Z C Z , J.Y K I H S S +.Y Y ` I ' K +.I L L I Y Z I Z H S S I P   ",
"  & , < t C Z L ' M v m v m M U c c c c c c N 9 v b C C > A.H S B c x x U v v m v m x N v c c c M b H C Z Z Z K F   ",
"  O ; s 7.r.y.g.n.|.+X@X#X#X#X#X#X#X#X#X#X#X#X+X}.'.z.z.l k.z.N.].XX@X#X#X#X#X#X#X#X#X#X#X#X@X+X XM.N.z.z.y.y.y.k   ",
"  . O p j.: : 5 5 5 z M.p q q q q q z.} q q q q p n.z q O s p 9.v.q q q q q 9.z.5 q q q q a M.g 5 5 5 5 p (.s = =   ",
"  . O j k.- - - ; - 9.(.; - - - - O N.9.= - - - O m.9.- O s - j.M.. - - - = y.N.. - - ; ; : Q.z - ; ; ; p (.l = =   ",
"  . X o + $ $ $ , $ $ $ & $ $ > $ $ $ $ $ @ > $ $ @ $ $ X > $ $ $ $ $ @ > 1 $ $ $ > @ > $ $ @ $ $ @ > $ $ @ $ $ +   ",
"  & < < C S H P #.Y H I H I L Y H H H Z H F I C S Z C C # 5.H Z H H K Z #.Y H I H Y Z I H H H Z K A I C S Z C K e   ",
"  > < < V Z H P *.I H J H I P O.H H H Z H D ` Z Z C C C X 5.H Z H H H A :.I H I H Y t ` H H H Z H r I Z Z C C F e   ",
"  > < 2 r Z H P +.I Z H H J P O.H S S Z Z D O.Z C r C C . 4.H Z S H K t @.J Z H H I t I S H Z Z H e I Z C r C K e   ",
"  & < w 4 C Z G I H Z Z Z H F { Z Z C C C A ~ C V e k 8 X 1.u d Z Z S t ` S C Z Z H r I Z Z C C Z 6 K C r r W S 6   ",
"  & > 9.5 r C A L S C C C Z A S C C C 8 C t K 7 r } `.w o O.k.j.8 C C t K Z V C C Z e S C C C 8 C e Z 7 r k n.t <   ",
"  & > - > 7 8 r S C 8 8 8 C e Z r 8 8 7 8 e Z 7 7 < w , o { 4 4 8 8 r e S V 8 V r C < C 8 8 8 7 r < t 7 7 4 i e <   ",
"  @ & & , < 2 e A 8 7 8 7 8 e t 7 2 2 2 2 < r 2 < < < < o P 7 2 2 7 7 < C 8 8 8 7 r < r 7 7 2 2 7 , e 2 < , < 7 ,   ",
"  @ $ $ > , < < r 2 2 7 2 2 2 e < < < < , < 7 < , > , , o D 2 < < 2 2 , r 2 < 7 2 7 , e < 2 < < < , 2 < > > , < >   ",
"  X X X o + @ @ $ @ @ @ @ @ @ & @ @ @ @ @ @ @ @ @ + @ @ X $ @ @ @ @ @ @ $ @ @ @ @ @ @ $ @ @ @ @ @ @ @ @ @ + @ @ o   ",
"                                                                                                                    "
};
