/* XPM */
static char *Red_Ghost_Up[] = {
/* columns rows colors chars-per-pixel */
"40 40 4 1 ",
"  c #AC3232",
". c #CBDBFC",
"X c gray100",
"o c None",
/* pixels */
"ooooooooooooooo          ooooooooooooooo",
"oooooooooooo                oooooooooooo",
"oooooooooo                    oooooooooo",
"ooooooooo                      ooooooooo",
"ooooooo                          ooooooo",
"oooooo                            oooooo",
"ooooo     ..XX            ..XX     ooooo",
"oooo     ..XXXX          ..XXXX     oooo",
"oooo    ...XXXX.        ...XXXX.    oooo",
"ooo     ....XX..        ....XX..     ooo",
"oo      ........        ........      oo",
"oo      ........        ........      oo",
"o        ......          ......        o",
"o         ....            ....         o",
"o                                      o",
"                                        ",
"                                        ",
"                                        ",
"                                        ",
"                                        ",
"                                        ",
"                                        ",
"                                        ",
"                                        ",
"                                        ",
"                                        ",
"                                        ",
"                                        ",
"                                        ",
"                                        ",
"                                        ",
"                                        ",
"          ooo              ooo          ",
"         ooooo            ooooo         ",
"o       ooooooo          ooooooo       o",
"o       ooooooo          ooooooo       o",
"o      ooooooooo        ooooooooo      o",
"oo    ooooooooooo      ooooooooooo    oo",
"oo    ooooooooooo      ooooooooooo    oo",
"ooo  ooooooooooooo    ooooooooooooo  ooo"
};
