/* XPM */
static char *d98fb349768843e993aee2ab37c5dcc0yiUhU2CNtghZr6Lz[] = {
/* columns rows colors chars-per-pixel */
"60 60 2 1 ",
"  c black",
". c #3B2BA1",
/* pixels */
"                                                            ",
"   ......................................................   ",
"  ........................................................  ",
" .......................................................... ",
" ....                                                  .... ",
" ...                                                    ... ",
" ...                                                    ... ",
" ...                                                    ... ",
" ...                                                    ... ",
" ...                                                    ... ",
" ...                                                    ... ",
" ...                                                    ... ",
" ...                                                    ... ",
" ...                                                    ... ",
" ...                                                    ... ",
" ...                                                    ... ",
" ...                                                    ... ",
" ...                                                    ... ",
" ...                                                    ... ",
" ...                                                    ... ",
" ...                                                    ... ",
" ...                                                    ... ",
" ...                                                    ... ",
" ...                                                    ... ",
" ...                                                    ... ",
" ...                                                    ... ",
" ...                                                    ... ",
" ...                                                    ... ",
" ...                                                    ... ",
" ...                                                    ... ",
" ...                                                    ... ",
" ...                                                    ... ",
" ...                                                    ... ",
" ...                                                    ... ",
" ...                                                    ... ",
" ...                                                    ... ",
" ...                                                    ... ",
" ...                                                    ... ",
" ...                                                    ... ",
" ...                                                    ... ",
" ...                                                    ... ",
" ...                                                    ... ",
" ...                                                    ... ",
" ...                                                    ... ",
" ...                                                    ... ",
" ...                                                    ... ",
" ...                                                    ... ",
" ...                                                    ... ",
" ...                                                    ... ",
" ...                                                    ... ",
" ...                                                    ... ",
" ...                                                    ... ",
" ...                                                    ... ",
" ...                                                    ... ",
" ...                                                    ... ",
" ....                                                  .... ",
" .......................................................... ",
"  ........................................................  ",
"   ......................................................   ",
"                                                            "
};
