/* XPM */
static char *_3113e4c0b0e4537a24c87531ddc550983N5jTiD9fomAygD[] = {
/* columns rows colors chars-per-pixel */
"40 40 51 1 ",
"  c None",
". c #000400",
"X c #223E01",
"o c #1F2821",
"O c #2A2027",
"+ c #2B2129",
"@ c #2D490B",
"# c #3C4917",
"$ c #3E5526",
"% c #354439",
"& c #36473B",
"* c #3E4939",
"= c #425C3E",
"- c #4F692E",
"; c #4F623A",
": c #536D32",
"> c #493744",
", c #4B3946",
"< c #51394E",
"1 c #563F50",
"2 c #444E41",
"3 c #5E4557",
"4 c #654354",
"5 c #63445B",
"6 c #61465A",
"7 c #67495F",
"8 c #714951",
"9 c #546352",
"0 c #506957",
"q c #516A58",
"w c #664462",
"e c #684860",
"r c #6E4B65",
"t c #6E4E66",
"y c #6E4F66",
"u c #6E5066",
"i c #7C536E",
"p c #7E5877",
"a c #805D77",
"s c #885F7D",
"d c #819566",
"f c #91A37A",
"g c #93A47C",
"h c #8A5F81",
"j c #8E5F81",
"k c #ABB798",
"l c #B3BEA4",
"z c #C4CBB9",
"x c #C8CFBE",
"c c #D5D8CF",
"v c #E0E1DD",
/* pixels */
"                 XXXXX                  ",
"               XXgggggXX                ",
"              XgkkkkkkkgX               ",
"             XgzzkzzzkzzgX              ",
"             XgzzzzzzzzzzX              ",
"            XgzkzzzzzzzkzgX             ",
"            XgzkzzzzzzzkzkX             ",
"            XgklzzzzzzzzkkX             ",
"            Xgd@@zzzzz@@dkX             ",
"            Xgl..@zzz@..lkX             ",
"            Xgd...lll...dgX             ",
"            Xdl@@-ldl-@@lgX             ",
"            X:dddld.dlddg:X             ",
"             X:gkclclcdkgX              ",
"              X:k.;.;.kg:               ",
"             XX:$.....$:XX              ",
"            XgkgXflllfXgkgX             ",
"           Xgxxkkgg:ggkkxxgX            ",
"           XxxxxxvkgkxvxxxvX            ",
"          Xgxk:kggkkkggk:kvgX           ",
"          Xxvg:gkkxkxkkg:gxvX           ",
"         XgxkXXgggkkkgggXXkxgX          ",
"         XkvgXXgkxxkxxkgXXgxkX          ",
"        XkxkX XgggkkkgggX XkxkX         ",
"        XkxgX XgkxkkkxkgX XgxkX         ",
"        XgkX X:gkkxkxkkg:X XkgX         ",
"         XX  oo0%9o%O6%qOo  XX          ",
"             at66*2<<<66t=              ",
"             >4ps>+++>sp4%              ",
"             Ou7ei8O8ie7uo              ",
"             o4js6,>,6hj4o              ",
"             oueri4O4ireuo              ",
"             o4wsp1O1psw4o              ",
"             o16p6OoO6p61o              ",
"             ouspu3o3upsuo              ",
"             opt61,o,16tpo              ",
"             owsp1o#o1pswo              ",
"             :oooog#goooo:              ",
"             :xxxxgXgxxxx:              ",
"             XgkgxX XxgkgX              "
};
